<?xml version="1.0" standalone="no"?>
<!DOCTYPE svg PUBLIC "-//W3C//DTD SVG 20010904//EN"
 "http://www.w3.org/TR/2001/REC-SVG-20010904/DTD/svg10.dtd">
<svg version="1.0" xmlns="http://www.w3.org/2000/svg"
 width="1024.000000pt" height="1024.000000pt" viewBox="0 0 1024.000000 1024.000000"
 preserveAspectRatio="xMidYMid meet">

<g transform="translate(0.000000,1024.000000) scale(0.100000,-0.100000)"
fill="#000000" stroke="none">
<path d="M0 5120 l0 -5120 5120 0 5120 0 0 5120 0 5120 -5120 0 -5120 0 0
-5120z m5431 3621 c152 -39 281 -113 400 -231 l69 -67 81 8 c235 23 473 -62
657 -235 121 -115 204 -241 252 -381 l17 -50 86 -7 c337 -29 628 -323 708
-716 9 -41 14 -469 18 -1542 l6 -1485 26 -55 c36 -76 75 -119 134 -146 l50
-24 -434 0 -435 0 -48 51 c-26 28 -48 55 -48 60 0 23 68 29 326 29 l274 0 -2
1543 -3 1542 -28 88 c-33 106 -65 172 -122 252 -149 208 -366 305 -554 249
-29 -8 -54 -14 -55 -12 -1 2 -11 44 -24 93 -73 297 -293 526 -574 597 -85 21
-175 21 -340 0 l-58 -8 -35 57 c-50 81 -134 153 -241 205 -109 53 -206 75
-334 75 -128 0 -225 -22 -336 -76 -104 -51 -207 -138 -251 -213 l-26 -44 -66
6 c-186 18 -227 18 -304 2 -299 -61 -549 -325 -607 -638 l-12 -66 -41 14
c-167 59 -339 4 -502 -161 -74 -75 -98 -108 -137 -185 -26 -52 -58 -133 -70
-180 l-22 -85 -3 -1527 -4 -1528 285 0 c166 0 296 -4 311 -10 l26 -10 -20 -29
c-11 -15 -34 -42 -50 -60 l-29 -31 -444 0 -443 0 51 24 c59 27 116 90 141 155
16 43 18 138 24 1511 6 1563 5 1520 54 1672 54 164 166 335 283 433 124 103
306 175 446 175 41 0 42 1 55 45 71 242 295 480 535 570 111 42 199 56 334 54
l122 -1 79 75 c125 119 257 188 432 227 118 25 303 22 420 -9z m-206 -330
c-36 -16 -94 -71 -95 -89 -1 -4 -7 -29 -15 -57 -11 -41 -14 -45 -14 -20 -2 89
67 185 132 185 l32 0 -40 -19z m-135 -18 c0 -46 -19 -101 -37 -108 -15 -5 -15
-7 -3 -15 12 -7 12 -12 3 -21 -10 -10 -9 -17 4 -31 9 -10 12 -18 6 -18 -19 0
-42 36 -37 56 4 15 -2 26 -20 38 -41 27 -34 48 14 40 35 -6 40 -4 51 19 8 18
8 30 0 46 -10 17 -9 21 4 21 10 0 15 -9 15 -27z m-40 -15 c0 -36 -4 -35 -14 5
-4 16 -2 27 4 27 5 0 10 -14 10 -32z m500 -32 c0 -8 -151 -97 -205 -122 -72
-31 -167 -54 -225 -53 -42 1 -40 2 25 14 91 17 157 43 280 110 89 49 125 63
125 51z m41 -142 c9 -47 3 -114 -10 -114 -4 0 -14 9 -24 20 -18 21 -62 26 -87
10 -11 -7 -6 -10 21 -10 21 0 47 -8 60 -19 23 -18 23 -18 5 -65 -12 -32 -16
-58 -11 -85 6 -34 4 -40 -14 -46 -12 -3 -21 -10 -21 -14 0 -5 -16 -29 -36 -55
-34 -45 -38 -47 -72 -41 -49 9 -85 29 -134 73 l-41 37 6 -34 c8 -39 28 -65 69
-89 16 -9 28 -22 28 -30 0 -23 -40 -91 -59 -102 -32 -17 -103 -12 -138 10 -35
21 -40 38 -22 72 6 11 19 59 28 107 17 85 17 85 51 92 43 9 62 34 58 79 -3 30
-7 35 -30 38 -25 3 -27 1 -21 -30 6 -43 -15 -63 -54 -53 l-28 7 28 14 c15 8
27 23 27 34 0 25 30 44 105 65 33 9 90 34 126 55 65 38 149 118 149 142 0 30
33 -24 41 -68z m-571 16 c20 -29 21 -30 2 -30 -23 0 -56 35 -47 49 10 18 22
13 45 -19z m-660 -26 c0 -3 -20 -26 -45 -52 -26 -26 -53 -68 -63 -94 -9 -27
-20 -48 -24 -48 -5 0 -8 24 -8 53 0 43 5 61 28 90 29 39 77 68 99 60 7 -3 13
-7 13 -9z m1750 -6 c18 -13 42 -35 52 -49 21 -28 34 -98 24 -126 -5 -13 -12
-5 -31 34 -13 29 -42 72 -64 96 -61 66 -50 91 19 45z m-1118 -42 c-9 -19 -18
-28 -20 -21 -4 17 15 55 28 55 5 0 2 -15 -8 -34z m1114 -82 c36 -66 1 -53
-108 40 l-47 40 27 18 c27 18 27 18 68 -23 23 -23 50 -56 60 -75z m-1683 92
c9 -7 17 -17 17 -22 0 -14 -155 -125 -158 -114 -10 27 80 150 109 150 8 0 22
-7 32 -14z m663 -48 c5 -7 -1 -9 -19 -4 -21 5 -30 1 -42 -18 -15 -22 -15 -27
0 -55 17 -35 48 -41 64 -13 8 14 10 10 11 -20 0 -44 -3 -45 -48 -18 -61 37
-72 98 -26 144 16 17 45 9 60 -16z m-600 -13 c-3 -9 3 -24 14 -35 25 -25 25
-46 1 -86 -24 -39 -97 -70 -138 -59 -27 8 -25 9 25 23 28 8 52 18 52 21 0 3
-34 5 -75 3 -61 -3 -75 -1 -75 11 0 8 13 20 28 26 16 7 55 34 88 61 60 49 91
63 80 35z m1480 -16 c3 -6 38 -31 77 -56 58 -38 67 -47 53 -55 -10 -5 -44 -8
-77 -6 -32 1 -59 2 -59 0 0 -1 15 -11 33 -23 l32 -20 -35 3 c-20 2 -34 8 -33
15 1 6 -4 14 -13 17 -10 4 -13 2 -8 -7 4 -6 -2 -3 -15 7 -12 11 -19 26 -16 33
2 8 1 12 -4 9 -11 -7 -21 17 -21 51 0 26 0 26 22 7 l21 -19 -6 31 c-3 18 -3
34 0 37 7 7 39 -9 49 -24z m-826 0 c9 -15 8 -24 -1 -35 -24 -29 -39 -3 -23 40
8 21 11 20 24 -5z m-56 -15 c8 -21 -1 -34 -25 -34 -22 0 -23 4 -9 31 13 23 26
24 34 3z m-134 -2 c0 -5 -16 -29 -35 -53 -43 -56 -65 -117 -65 -183 0 -53 11
-77 58 -128 33 -35 13 -36 -28 -2 -44 38 -60 75 -60 141 0 71 24 126 81 187
43 47 49 52 49 38z m-888 -31 c-1 -7 5 -22 14 -34 15 -20 16 -20 10 -2 -6 16
-5 17 5 8 14 -14 24 -111 15 -146 -3 -14 -13 -28 -23 -31 -15 -6 -15 -5 1 13
19 21 13 52 -7 32 -16 -16 -27 -13 -27 7 0 9 -9 35 -19 57 l-19 40 -1 -55 c-1
-30 -6 -62 -11 -70 -8 -13 -11 -13 -26 2 -20 19 -21 76 -3 111 28 55 101 109
91 68z m2365 -65 c16 -32 13 -110 -5 -128 -14 -14 -42 51 -43 101 -1 20 -3 27
-6 16 -2 -11 -6 -31 -9 -44 -4 -17 -10 -22 -24 -18 -13 3 -20 0 -20 -10 0 -26
20 -53 40 -53 10 0 22 -4 25 -10 9 -15 -22 -12 -56 5 -41 22 -51 52 -38 122
12 65 26 96 39 88 5 -3 12 0 15 6 9 13 61 -34 82 -75z m-2177 -10 c0 -2 -9 -6
-20 -9 -11 -3 -18 -1 -14 4 5 9 34 13 34 5z m54 -177 c25 -19 36 -49 18 -49
-5 0 -17 -7 -28 -16 -19 -15 -19 -15 2 -5 12 6 26 6 35 0 12 -7 12 -9 -1 -9
-8 0 -26 -9 -40 -20 -31 -24 -37 -24 -86 -4 l-38 16 23 17 c15 12 22 25 19 41
-3 24 -3 24 -41 -9 -53 -47 -58 -32 -6 18 50 48 99 55 143 20z m1937 -20 c46
-42 29 -39 -30 5 -19 14 -36 24 -39 22 -6 -6 31 -66 40 -66 4 0 8 -9 8 -21 0
-18 -4 -20 -47 -14 -91 13 -125 53 -77 92 46 37 92 31 145 -18z m-2411 12 c8
-15 5 -28 -9 -53 -11 -18 -25 -54 -32 -80 -6 -27 -15 -48 -19 -48 -13 0 -40
48 -40 70 0 29 16 59 53 98 17 17 32 32 34 32 1 0 7 -9 13 -19z m2800 -21 c16
-17 34 -46 40 -65 10 -30 9 -39 -10 -65 -27 -37 -38 -38 -46 -2 -3 15 -12 45
-19 67 -14 39 -14 38 -13 -52 1 -53 6 -93 12 -93 5 0 7 -2 4 -5 -10 -11 -34 6
-52 36 -14 24 -16 41 -11 77 8 57 40 132 55 132 7 0 25 -14 40 -30z m-2765
-97 c6 -44 3 -58 -15 -88 -12 -19 -25 -35 -28 -35 -13 0 -6 155 7 179 17 31
26 16 36 -56z m2263 27 c22 -7 23 -8 6 -9 -11 -1 -29 6 -40 15 -10 8 -13 12
-6 9 8 -4 26 -11 40 -15z m-1014 -81 c4 6 15 10 24 10 15 -1 15 -2 0 -6 -10
-2 -18 -9 -18 -14 0 -6 5 -7 10 -4 6 3 10 1 10 -5 0 -7 7 -10 15 -6 8 3 15 0
15 -5 0 -7 11 -9 25 -7 14 3 25 1 25 -6 0 -6 7 -3 15 8 7 10 20 16 27 13 19
-7 50 13 44 28 -2 7 2 19 11 27 14 11 15 10 9 -12 l-7 -25 19 22 c19 22 21 22
98 9 44 -8 90 -19 104 -24 29 -11 101 -82 120 -117 12 -23 10 -28 -39 -77 -29
-29 -48 -43 -42 -31 17 33 14 35 -18 12 -20 -14 -59 -26 -120 -35 -50 -7 -104
-20 -119 -28 -42 -22 -89 -80 -103 -127 l-13 -40 -18 50 c-23 60 -81 116 -137
131 -22 6 -68 11 -103 11 -35 1 -71 5 -80 10 -11 6 -18 5 -21 -4 -5 -14 -106
91 -107 112 0 20 56 87 94 110 18 12 66 28 107 37 41 9 81 20 89 25 10 5 25
-2 46 -22 20 -20 34 -27 38 -20z m-8 23 c-4 -3 -14 2 -24 12 -16 18 -16 18 6
6 13 -6 21 -14 18 -18z m1584 -17 c0 -8 -16 -32 -36 -53 l-37 -37 32 38 c17
21 31 44 31 52 0 8 2 15 5 15 3 0 5 -7 5 -15z m-2950 -39 c0 -12 -5 -7 -19 24
-11 24 -11 24 3 6 9 -11 16 -24 16 -30z m1465 24 c13 -6 15 -9 5 -9 -8 0 -22
4 -30 9 -18 12 -2 12 25 0z m-1127 -36 c32 -9 27 -25 -14 -54 -55 -37 -106
-94 -192 -217 -13 -18 -12 -13 3 32 6 18 5 18 -13 -2 l-20 -22 3 32 c2 18 4
34 5 37 1 3 2 8 1 13 -2 15 47 103 73 128 48 49 101 67 154 53z m2377 -33 c54
-36 100 -112 99 -163 -2 -66 -17 -65 -72 5 -27 35 -78 88 -111 118 -34 29 -61
57 -61 61 0 10 40 15 75 10 17 -2 48 -16 70 -31z m-2170 -12 c22 -6 71 -17
108 -23 l68 -12 -51 -84 c-116 -191 -270 -293 -418 -276 -92 11 -93 18 -11 67
41 25 108 60 149 78 86 38 160 89 191 132 32 45 17 45 -41 1 -59 -45 -234
-128 -228 -109 3 6 44 42 93 80 78 59 118 97 101 97 -3 0 -45 -23 -93 -50 -55
-32 -115 -78 -160 -122 -40 -40 -75 -69 -79 -66 -11 12 68 149 113 194 46 47
151 104 193 104 14 0 43 -5 65 -11z m1991 -19 c32 -16 80 -51 106 -77 43 -44
118 -155 118 -175 0 -15 -39 12 -106 73 -54 48 -210 149 -232 149 -12 0 38
-46 116 -107 46 -36 81 -67 79 -70 -9 -8 -151 65 -217 111 -35 25 -66 43 -68
41 -2 -2 1 -13 7 -24 17 -30 87 -81 190 -135 50 -27 88 -53 85 -58 -3 -5 0 -8
7 -7 22 4 49 -12 42 -25 -3 -6 -3 -8 2 -4 4 4 24 -2 44 -14 44 -26 63 -44 39
-35 -9 3 -18 1 -20 -5 -2 -6 -34 -11 -73 -12 -61 -1 -80 4 -145 35 -102 48
-182 125 -248 235 -29 49 -49 90 -45 91 49 15 187 41 219 42 27 1 61 -9 100
-29z m-2817 -66 c38 -48 17 -170 -41 -239 -9 -11 -26 -31 -37 -45 l-20 -25 5
25 c2 14 -9 -2 -25 -35 l-30 -60 -1 71 c0 52 8 98 30 169 17 54 30 101 30 106
0 4 4 19 10 33 13 35 52 35 79 0z m3599 -106 c40 -130 61 -219 48 -207 -3 3
-12 23 -20 45 -8 22 -15 31 -15 19 0 -11 6 -38 14 -60 31 -84 13 -69 -103 87
-29 40 -46 100 -46 164 -1 59 15 84 54 84 26 0 28 -5 68 -132z m-2290 49 l52
-52 -66 -150 c-41 -93 -76 -158 -92 -172 -14 -12 -24 -24 -22 -26 6 -5 255
-44 335 -53 33 -4 72 -13 87 -20 35 -18 67 -79 78 -150 13 -80 3 -93 -29 -42
-55 86 -85 86 -35 1 30 -52 26 -63 -13 -35 -51 36 -63 57 -69 119 l-7 61 -106
-5 c-141 -7 -316 10 -342 33 -25 23 -25 83 2 170 22 73 157 374 168 374 4 0
30 -24 59 -53z m970 -24 c53 -105 129 -297 143 -359 28 -122 -1 -138 -268
-138 l-191 -1 -7 -60 c-7 -63 -30 -102 -72 -124 -30 -15 -31 6 -3 42 22 27 27
57 10 57 -6 0 -25 -23 -43 -52 l-32 -52 -3 54 c-4 65 17 126 57 164 25 24 45
29 232 58 112 17 206 33 208 35 3 2 -5 10 -17 19 -27 19 -70 102 -122 236
l-39 100 52 49 c29 26 53 48 54 49 2 0 20 -35 41 -77z m-2083 23 c50 -21 85
-60 85 -94 0 -38 -27 -63 -36 -36 -4 11 -14 27 -22 37 -22 25 -105 23 -148 -4
-33 -20 -34 -20 -34 -2 0 24 43 84 73 100 29 16 41 16 82 -1z m3183 -6 c31
-19 72 -84 60 -96 -4 -3 -20 2 -37 10 -16 9 -53 16 -81 16 -46 0 -53 -3 -68
-30 -23 -40 -42 -39 -42 4 0 40 31 83 74 102 42 18 56 17 94 -6z m-3633 -55
c39 -16 55 -46 55 -103 0 -36 0 -36 -16 -14 -8 12 -19 22 -25 22 -15 0 -10
-27 13 -71 l21 -41 -51 -47 c-29 -25 -59 -64 -68 -86 l-16 -39 -14 24 c-19 36
-17 85 6 122 11 18 20 42 20 54 0 19 -3 20 -35 10 -19 -6 -35 -14 -35 -18 0
-17 -38 -7 -43 11 -10 40 50 121 89 121 19 0 18 25 -1 40 -35 29 40 41 100 15z
m4095 5 c13 -9 13 -12 -2 -21 -23 -13 -23 -36 1 -44 28 -9 91 -74 91 -94 0
-36 -23 -42 -69 -20 -24 11 -46 18 -49 14 -3 -3 3 -24 15 -48 29 -59 34 -97
19 -132 l-13 -30 -16 30 c-8 17 -34 48 -57 70 -60 58 -64 68 -40 108 11 19 18
42 14 51 -10 25 -21 19 -29 -16 l-8 -33 -10 44 c-18 75 26 128 108 130 17 0
37 -4 45 -9z m-2233 -30 c76 -46 124 -167 127 -320 4 -161 5 -180 15 -180 4 0
11 73 13 163 6 173 16 219 66 286 14 18 43 42 66 52 48 22 146 26 146 7 0 -7
-14 -42 -30 -76 -17 -35 -30 -69 -30 -75 0 -18 -32 -47 -52 -47 -10 0 -18 -7
-18 -16 0 -8 5 -12 10 -9 10 6 14 -14 11 -45 -1 -8 -12 -23 -24 -33 -21 -18
-21 -18 -29 0 -7 16 -8 15 -5 -3 3 -15 -8 -33 -38 -62 -31 -30 -46 -54 -58
-99 -10 -33 -17 -69 -17 -81 0 -31 -19 -27 -25 6 -25 118 -45 154 -121 213
-45 35 -54 47 -50 65 4 13 1 24 -7 27 -9 3 -8 8 3 23 14 17 13 18 -1 7 -12
-10 -18 -10 -27 -1 -17 17 -15 28 4 28 23 0 74 39 74 57 0 14 -3 13 -25 -1
-14 -9 -36 -21 -50 -26 -24 -9 -27 -6 -54 55 -51 112 -52 105 26 105 50 0 77
-5 100 -20z m-1419 -30 c1 -8 -9 -27 -23 -42 -14 -15 -25 -34 -25 -43 0 -9 -5
-13 -10 -10 -6 4 1 -10 15 -31 28 -41 32 -64 11 -64 -8 0 -28 -12 -45 -26 -17
-14 -36 -22 -42 -18 -7 4 -9 3 -6 -3 4 -6 1 -16 -6 -22 -10 -8 -16 -2 -26 24
-16 46 -33 51 -111 29 l-25 -7 20 24 c10 13 37 43 58 66 l39 41 45 -34 c68
-52 78 -45 43 28 -11 23 -20 45 -20 50 0 12 74 59 90 56 8 -2 16 -10 18 -18z
m3180 -7 c40 -26 42 -33 21 -74 -10 -21 -19 -43 -19 -49 0 -19 29 -10 65 21
41 36 41 36 108 -44 l42 -50 -42 6 c-55 9 -70 2 -83 -39 -11 -31 -30 -47 -30
-25 0 5 -26 29 -59 53 l-58 44 18 23 c25 31 24 55 -6 99 -14 20 -25 40 -25 44
0 14 40 8 68 -9z m-3061 -124 c90 -58 108 -88 108 -174 0 -60 -5 -81 -36 -146
-67 -140 -191 -247 -308 -263 l-43 -7 7 48 c4 26 8 48 8 48 1 0 28 13 60 29
105 52 170 158 171 276 1 76 -19 152 -45 176 -24 22 -25 54 -1 54 9 0 45 -18
79 -41z m2973 36 c0 -2 -14 -32 -31 -66 -28 -55 -32 -72 -32 -144 0 -155 77
-266 214 -308 16 -5 35 -80 24 -96 -6 -10 -82 3 -129 23 -83 35 -204 180 -236
283 -42 136 -16 214 90 276 57 32 100 47 100 32z m-3476 -131 c3 -9 6 -39 6
-68 0 -82 24 -136 101 -224 38 -44 69 -84 69 -90 0 -22 -44 -62 -81 -73 -38
-12 -41 -11 -94 26 -61 41 -74 75 -29 75 14 0 23 -4 20 -8 -3 -5 5 -8 17 -7
12 1 30 -2 40 -7 31 -16 18 -2 -43 46 -118 93 -141 217 -59 311 35 39 44 42
53 19z m3953 -50 c16 -27 23 -56 23 -91 0 -80 -23 -124 -91 -178 -60 -47 -75
-64 -40 -45 26 13 78 13 86 -1 18 -28 -100 -103 -145 -92 -30 7 -80 51 -80 71
0 8 26 43 59 77 80 86 101 133 101 226 0 85 11 107 44 85 12 -7 31 -31 43 -52z
m-3548 5 c16 -52 7 -110 -27 -173 -31 -57 -96 -116 -129 -116 -46 0 -183 164
-183 219 0 34 23 67 60 86 53 28 57 23 47 -56 -6 -52 -6 -79 3 -98 l12 -26 13
39 c8 21 20 45 27 52 17 17 151 113 159 113 3 1 11 -17 18 -40z m3163 -16 c52
-38 87 -71 99 -95 32 -63 42 -48 37 53 l-4 91 30 -6 c50 -10 81 -48 79 -97 -2
-49 -34 -101 -104 -171 -64 -64 -85 -63 -152 5 -57 57 -87 124 -87 192 0 41 9
85 17 85 2 0 41 -26 85 -57z m-2786 -8 c16 -12 17 -14 3 -15 -9 0 -39 -18 -65
-40 -27 -22 -52 -40 -57 -40 -13 0 3 42 30 78 26 35 57 41 89 17z m2389 -1
c23 -24 47 -73 43 -92 -2 -12 -15 -5 -55 30 -28 25 -57 48 -65 51 -10 4 -10 7
2 16 22 16 56 13 75 -5z m-2339 -62 c51 -43 55 -82 17 -161 -40 -84 -71 -121
-119 -143 -31 -13 -48 -29 -58 -51 -22 -53 -80 -87 -148 -87 -32 0 -128 38
-128 50 0 4 21 11 48 15 62 9 132 40 132 59 0 12 -6 13 -32 5 -18 -5 -44 -9
-58 -9 -23 0 -23 2 17 43 22 23 54 63 72 89 29 43 37 49 108 70 92 28 112 53
34 42 -28 -4 -51 -4 -51 -2 0 12 114 98 129 98 9 -1 25 -9 37 -18z m2317 -33
l52 -50 -38 4 c-39 5 -57 -6 -35 -20 7 -4 40 -15 73 -23 51 -14 64 -22 93 -60
18 -25 51 -67 74 -93 22 -27 37 -51 34 -54 -3 -4 -23 -1 -45 5 -56 17 -67 16
-47 -7 24 -26 60 -40 131 -49 l60 -7 -36 -21 c-50 -30 -90 -37 -152 -29 -60 9
-117 56 -117 98 0 20 -6 27 -28 32 -60 13 -89 41 -132 129 -30 60 -40 93 -36
110 9 35 55 86 78 86 11 0 43 -23 71 -51z m-3324 -17 c24 -24 71 -125 71 -152
0 -6 -20 -10 -44 -10 -60 0 -68 -17 -17 -37 23 -9 41 -19 41 -22 0 -3 -13 -15
-29 -26 -16 -10 -36 -36 -45 -57 -12 -33 -19 -38 -46 -38 -46 0 -95 51 -85 88
5 15 9 73 9 130 1 101 2 104 29 128 38 33 81 31 116 -4z m4316 14 c18 -8 41
-26 51 -40 15 -24 15 -34 4 -101 -11 -66 -11 -77 4 -100 21 -32 14 -56 -25
-90 -46 -38 -74 -33 -99 16 -12 22 -34 48 -51 57 -36 21 -32 36 12 42 22 3 35
11 37 24 3 16 -2 18 -48 15 -47 -4 -51 -3 -46 17 11 42 56 134 76 154 24 24
39 25 85 6z m-1841 -321 c35 -49 83 -125 106 -169 37 -67 43 -87 43 -135 -1
-31 -8 -73 -16 -94 -14 -32 -20 -37 -50 -37 -18 0 -41 6 -51 13 -18 13 -18 16
0 84 13 54 16 80 8 108 -5 20 -13 36 -18 36 -11 0 -66 -184 -66 -218 0 -26 32
-50 78 -59 43 -9 45 -14 22 -60 -23 -45 -26 -106 -6 -123 11 -10 16 -3 26 38
6 28 32 82 57 121 40 63 46 80 51 141 l5 70 27 -48 c15 -26 39 -69 54 -95 26
-45 26 -48 9 -53 -10 -3 -43 -18 -73 -33 -74 -37 -115 -101 -114 -181 0 -46 8
-72 47 -151 98 -199 79 -298 -56 -288 -65 5 -69 -4 -16 -40 39 -27 74 -24 120
9 46 32 62 73 57 143 -3 34 -9 70 -13 81 -8 17 -4 16 27 -7 19 -15 75 -46 124
-69 175 -83 256 -204 210 -314 -20 -46 -57 -69 -102 -62 -44 7 -60 20 -85 69
-19 38 -19 38 0 38 27 0 61 46 61 82 0 66 -49 118 -113 118 -68 0 -95 -27
-108 -110 -4 -25 -11 -57 -14 -72 -9 -35 23 -54 65 -39 25 8 31 6 45 -16 22
-34 30 -127 15 -181 -12 -45 -82 -132 -105 -132 -7 0 -32 9 -56 20 -121 54
-235 -8 -232 -126 2 -89 47 -146 124 -159 34 -6 44 -14 73 -58 18 -29 98 -115
177 -193 140 -137 194 -182 205 -171 7 7 -89 266 -113 303 -11 18 -11 26 2 50
18 35 19 58 4 87 -16 30 -28 37 -66 37 -29 0 -33 -3 -33 -25 0 -17 5 -25 18
-25 38 0 56 -46 27 -70 -12 -10 -23 -5 -62 30 -63 55 -66 61 -47 106 16 37 15
97 -1 137 -5 12 -2 17 9 17 27 0 94 69 111 115 9 23 20 66 23 93 6 44 9 49 23
39 12 -9 20 -54 33 -207 17 -205 51 -389 84 -462 11 -24 37 -60 59 -81 36 -35
47 -39 133 -52 67 -9 98 -19 107 -31 19 -26 16 -78 -6 -98 -24 -22 -78 -24
-98 -3 -16 15 -14 26 9 60 11 15 10 20 -6 33 -23 16 -89 19 -117 4 -21 -12
-26 -49 -6 -51 6 -1 21 -2 32 -3 14 -1 22 -10 25 -31 11 -65 52 -95 130 -95
105 0 180 69 180 164 -1 28 -7 62 -15 76 -14 24 -14 24 -15 -23 0 -54 -21
-111 -52 -144 -33 -35 -40 -27 -13 13 29 43 31 64 10 105 -25 48 -70 69 -146
69 -79 0 -104 19 -103 79 2 49 25 91 90 162 59 64 58 62 44 163 -10 68 -10 70
16 97 27 28 35 72 16 91 -10 10 -15 6 -146 -117 -27 -25 -49 -45 -50 -45 -1 0
-17 31 -36 70 -18 38 -35 68 -37 66 -2 -2 10 -37 26 -79 l30 -76 -24 -60 c-14
-33 -25 -71 -25 -83 0 -14 -4 -18 -9 -12 -11 10 -26 147 -37 318 l-7 109 34
-25 c78 -59 151 -57 216 5 49 46 56 114 13 137 -14 7 -24 5 -42 -10 -22 -19
-22 -21 -5 -34 24 -19 21 -41 -9 -65 -39 -31 -85 -27 -124 9 l-33 31 31 32
c81 84 82 207 2 383 -69 152 -147 205 -309 210 -88 3 -98 5 -115 27 -21 29
-31 100 -22 152 11 58 101 145 149 145 8 0 29 -22 46 -48 35 -56 42 -85 13
-59 -25 23 -75 21 -96 -2 -53 -58 -16 -154 71 -185 90 -32 93 -32 93 2 0 37
-8 43 -73 51 -44 5 -53 10 -61 32 -13 37 0 79 24 79 11 0 20 -4 20 -8 0 -5 6
-16 13 -26 11 -15 17 -16 35 -7 18 10 24 7 45 -21 22 -30 102 -159 199 -323
72 -121 227 -433 274 -550 49 -123 137 -399 125 -392 -52 28 -88 38 -120 32
-80 -15 -131 -62 -138 -128 -5 -39 -2 -47 16 -56 29 -16 41 -6 41 35 0 44 42
90 91 99 49 9 111 -14 127 -47 42 -88 42 -298 0 -389 -34 -74 -73 -94 -167
-86 -71 6 -138 32 -351 135 -106 52 -144 76 -250 167 -69 59 -156 128 -194
154 -114 75 -166 177 -181 347 l-7 79 52 68 c29 37 56 67 60 67 4 0 27 -16 51
-35 47 -37 78 -43 138 -25 53 15 81 47 81 92 0 50 -22 70 -103 97 -80 27 -152
87 -179 150 l-19 45 -21 -21 c-48 -49 27 -143 169 -210 50 -24 93 -49 96 -56
7 -20 -4 -37 -34 -52 -41 -22 -53 -19 -66 15 -9 25 -17 30 -43 30 -21 0 -40 9
-58 28 -15 15 -46 39 -69 54 -70 45 -88 93 -58 161 12 28 -21 21 -45 -10 -40
-51 0 -143 93 -212 47 -35 50 -48 17 -69 -18 -11 -24 -9 -45 14 -14 15 -25 31
-25 35 0 5 -7 9 -15 9 -18 0 -21 -60 -3 -78 9 -9 9 -21 0 -50 -16 -52 -15 -92
3 -198 18 -103 40 -156 100 -244 50 -73 95 -200 95 -267 0 -24 -8 -58 -17 -76
l-17 -32 -8 76 c-8 91 -28 145 -97 264 -98 170 -117 270 -126 650 -3 138 -8
286 -11 330 l-6 80 21 -27 c27 -34 116 -78 158 -78 35 0 73 29 73 55 0 13 -9
15 -49 9 -46 -6 -91 6 -91 25 0 4 20 22 45 40 56 40 75 76 75 141 0 56 -13 94
-55 161 -23 35 -28 54 -26 94 1 28 -7 79 -17 115 -16 56 -22 65 -44 68 -24 3
-25 2 -18 -35 4 -21 15 -67 24 -102 10 -35 15 -65 12 -68 -7 -7 -56 81 -56
100 0 11 -8 17 -24 17 -32 0 -36 15 -35 128 l0 97 16 -37 c17 -42 23 -45 58
-23 14 8 36 22 50 30 l24 15 -29 62 c-36 80 -50 168 -25 168 18 0 65 -43 65
-60 0 -5 -9 -10 -20 -10 -25 0 -28 -41 -4 -64 19 -19 28 -20 42 -3 49 58 2
172 -97 240 l-25 17 22 23 c12 13 22 30 22 38 1 18 45 -34 124 -146z m-576
116 l22 -30 -52 -42 c-57 -49 -78 -89 -78 -152 0 -50 18 -81 46 -76 26 5 31
55 8 80 -16 17 -15 20 15 54 l31 36 0 -66 c0 -69 -16 -121 -43 -144 -10 -7
-17 -20 -17 -27 0 -15 85 -74 106 -74 7 0 18 16 25 34 7 19 15 33 18 31 8 -5
1 -215 -7 -214 -22 3 -31 -6 -52 -51 -29 -61 -45 -65 -37 -7 3 23 9 66 13 95
6 45 5 52 -10 52 -33 0 -78 -160 -59 -203 9 -20 5 -32 -27 -80 -22 -32 -44
-81 -51 -112 -11 -50 -10 -61 7 -103 14 -32 34 -58 67 -82 l47 -35 -23 -17
c-26 -21 -60 -23 -87 -6 -15 10 -22 10 -32 0 -10 -10 -10 -18 2 -40 12 -21 24
-28 53 -30 44 -4 132 33 166 69 l22 24 -6 -290 c-10 -473 -25 -562 -122 -745
-88 -164 -93 -176 -99 -242 -3 -35 -8 -79 -11 -98 l-5 -35 -20 50 c-14 34 -18
63 -14 90 11 80 58 199 103 262 63 88 95 184 101 303 2 52 0 112 -6 132 -8 28
-7 41 4 55 15 20 19 69 6 77 -5 3 -24 -10 -42 -29 -35 -37 -58 -43 -78 -23
-30 30 -7 -11 34 -61 l46 -56 -5 -102 c-4 -90 -9 -109 -40 -175 -39 -80 -74
-117 -191 -202 -38 -27 -100 -77 -140 -111 -103 -89 -149 -118 -321 -200 -281
-135 -392 -140 -448 -17 -26 59 -35 233 -17 335 10 58 16 69 40 82 16 8 52 15
80 15 44 0 56 -5 81 -29 16 -16 30 -41 30 -55 3 -48 4 -51 25 -54 77 -11 40
129 -47 173 -36 19 -122 19 -158 0 l-29 -14 34 115 c54 179 108 311 229 549
95 188 282 515 347 608 19 27 21 27 39 11 21 -19 35 -12 41 21 5 32 50 27 62
-8 15 -43 -18 -81 -75 -85 -52 -4 -69 -16 -69 -48 0 -19 5 -24 24 -24 14 0 28
4 31 10 3 5 23 14 45 20 105 28 125 169 28 203 -9 3 -32 -2 -52 -12 l-35 -18
29 51 c16 28 36 55 43 60 21 13 70 -10 116 -54 63 -61 74 -148 29 -230 l-19
-35 -92 0 c-115 -1 -178 -26 -240 -95 -75 -83 -137 -236 -137 -337 0 -65 16
-107 61 -157 l33 -38 -32 -29 c-39 -35 -79 -37 -116 -8 -30 23 -34 56 -9 74
15 11 14 14 -14 29 -29 14 -33 14 -47 0 -22 -21 -20 -73 4 -112 21 -33 87 -71
125 -72 28 0 121 45 128 61 3 8 6 -40 6 -106 1 -124 -14 -294 -27 -307 -4 -4
-21 29 -37 74 -23 67 -38 92 -80 133 -90 89 -143 135 -154 135 -22 0 -12 -63
15 -91 l26 -27 -17 -75 c-9 -42 -14 -86 -10 -97 4 -12 36 -53 71 -91 65 -71
83 -113 70 -163 -10 -41 -31 -53 -107 -59 -77 -6 -106 -21 -142 -69 -17 -23
-18 -31 -8 -59 6 -19 24 -47 39 -63 20 -21 22 -26 7 -18 -30 15 -72 63 -84 95
-6 16 -11 49 -12 75 l-1 47 -13 -30 c-19 -40 -19 -109 0 -145 34 -66 121 -102
208 -86 41 8 87 50 87 80 0 15 10 25 31 33 24 9 30 17 27 35 -3 21 -8 23 -57
23 -64 0 -83 -18 -62 -59 18 -33 1 -56 -43 -56 -27 0 -36 6 -55 40 -18 32 -20
43 -11 61 13 24 67 49 107 49 83 0 150 46 195 133 11 22 33 93 50 156 24 96
30 148 37 305 8 172 11 190 30 209 l21 21 0 -31 c0 -17 9 -60 20 -96 15 -49
30 -73 60 -101 22 -20 47 -36 55 -36 12 0 14 -8 9 -42 -10 -58 -10 -56 0 -117
l8 -53 -48 -49 -49 -50 -17 22 c-10 12 -18 27 -18 35 0 18 34 36 54 28 18 -7
21 9 6 37 -22 41 -92 11 -106 -45 -3 -15 1 -38 10 -56 13 -27 13 -35 1 -53 -7
-12 -23 -49 -35 -82 -12 -33 -35 -95 -52 -139 -16 -43 -27 -81 -24 -84 13 -12
58 26 211 176 88 86 169 174 180 195 13 24 29 40 45 43 48 9 115 51 134 84 24
40 25 104 3 147 -20 37 -91 83 -130 83 -15 0 -50 -9 -79 -20 -29 -11 -58 -20
-65 -20 -21 0 -73 51 -94 92 -23 46 -28 145 -10 201 12 36 14 37 58 34 54 -2
77 19 55 53 -6 11 -12 40 -12 66 0 37 -5 51 -29 75 -24 24 -38 29 -76 29 -38
0 -52 -5 -75 -28 -52 -53 -48 -154 6 -168 28 -7 29 -15 7 -57 -22 -44 -41 -56
-90 -57 -34 0 -46 5 -67 30 -72 87 -30 218 97 298 35 22 95 56 134 75 39 20
78 44 87 53 22 22 29 13 16 -20 -27 -71 -2 -169 51 -209 40 -29 105 -25 138 8
l26 27 -47 -6 c-34 -5 -55 -3 -77 9 -72 37 -70 107 4 266 43 92 55 127 55 165
-1 95 -61 174 -163 212 l-47 18 52 88 53 87 6 -65 c5 -58 12 -75 54 -136 40
-58 49 -80 53 -125 2 -31 8 -58 13 -61 4 -2 15 10 24 27 19 36 14 84 -15 141
l-19 36 37 7 c20 4 49 13 65 22 25 12 28 19 24 46 -7 44 -70 227 -78 227 -22
0 -24 -106 -4 -184 9 -33 13 -61 11 -64 -3 -2 -25 -7 -49 -9 -42 -5 -44 -4
-60 30 -25 53 -22 141 7 204 35 75 219 342 237 343 3 0 15 -13 27 -29z m237
-936 c11 -1351 11 -1324 -4 -1375 l-14 -45 -15 40 c-18 46 -18 12 -8 1365 4
492 9 906 12 919 3 14 9 20 14 15 4 -5 11 -418 15 -919z m-90 -7 c-13 -1405
-13 -1344 13 -1407 21 -49 21 -55 7 -77 -37 -56 -105 -69 -105 -19 0 16 11 29
35 44 52 31 43 61 -19 61 -51 0 -87 -94 -57 -152 31 -63 99 -62 161 0 l37 37
18 -23 c23 -32 75 -62 104 -62 39 0 81 47 81 90 0 89 -46 138 -97 105 -32 -21
-26 -47 15 -59 24 -7 32 -15 32 -31 0 -13 -7 -28 -14 -35 -19 -15 -61 4 -88
40 -18 24 -17 27 8 100 l27 75 -8 290 c-11 443 -21 1889 -13 1899 4 5 11 7 14
3 4 -4 11 -312 15 -684 10 -842 15 -1024 34 -1138 19 -117 39 -174 114 -320
34 -66 64 -136 67 -155 l6 -35 -22 41 c-11 23 -29 49 -40 59 -11 10 -4 -10 20
-57 21 -40 43 -96 49 -124 17 -72 45 -112 94 -134 53 -24 81 -25 134 -1 79 36
102 151 31 151 -19 0 -21 -6 -18 -57 2 -37 -20 -53 -75 -53 -45 0 -53 19 -29
72 22 49 22 129 -1 198 -9 28 -15 55 -13 61 2 5 42 -23 89 -63 184 -158 211
-176 401 -262 101 -46 204 -88 230 -95 95 -23 173 -11 236 36 47 35 50 23 4
-14 -129 -104 -244 -108 -424 -16 -83 43 -156 63 -229 63 -62 0 -107 -12 -219
-60 -147 -63 -336 -131 -403 -145 -161 -35 -258 -15 -612 125 -196 78 -211 82
-295 78 -60 -4 -92 -12 -160 -42 -176 -79 -209 -88 -286 -84 -79 5 -164 44
-193 87 -14 22 -13 22 23 -3 102 -69 225 -44 531 105 123 60 156 82 277 183
76 64 140 116 142 116 3 0 -4 -30 -15 -67 -24 -85 -24 -156 1 -208 23 -49 13
-65 -39 -65 -53 0 -66 13 -66 62 0 37 -3 43 -22 46 -36 5 -48 -31 -28 -83 13
-35 25 -48 59 -64 53 -26 75 -26 134 -1 66 29 88 67 97 164 8 94 20 130 85
257 132 259 140 346 141 1517 1 543 3 612 16 612 14 0 15 -93 8 -882z m250
769 c4 -45 15 -108 25 -139 10 -32 15 -58 11 -58 -12 0 -37 31 -55 68 -19 37
-34 197 -22 229 14 35 34 -13 41 -100z m-347 -149 c-26 -66 -44 -77 -33 -20 4
20 11 86 14 145 4 80 10 110 21 117 13 8 15 -4 18 -88 2 -82 -1 -106 -20 -154z
m-1813 221 l39 -11 -51 -24 c-28 -14 -71 -42 -96 -64 -43 -38 -67 -50 -67 -32
0 17 58 99 85 120 32 25 36 26 90 11z m1139 -9 c21 -20 -71 -96 -187 -156
-130 -67 -124 -41 13 57 105 74 126 99 85 99 -14 0 -32 -11 -45 -27 -12 -16
-49 -44 -83 -63 -39 -23 -72 -51 -90 -77 -31 -46 -117 -111 -117 -89 0 8 9 44
20 80 33 105 106 164 231 185 57 10 158 4 173 -9z m1912 -6 c77 -25 121 -60
150 -120 24 -49 44 -134 31 -134 -26 0 -62 28 -97 74 -24 34 -65 71 -101 94
-33 21 -66 50 -73 63 -12 25 -52 37 -68 21 -6 -6 2 -18 24 -33 59 -41 181
-153 170 -157 -27 -9 -239 132 -265 176 l-17 31 42 4 c66 7 151 -1 204 -19z
m992 6 c34 -21 95 -107 86 -121 -10 -16 -25 -9 -72 35 -54 49 -82 66 -112 66
-40 0 5 30 60 39 3 1 20 -8 38 -19z m-3864 -116 c-33 -83 -68 -131 -123 -164
-43 -26 -51 -40 -25 -40 31 0 83 32 122 74 33 36 53 76 87 174 6 17 97 16 140
-2 44 -19 68 -55 59 -92 -4 -16 -37 -60 -74 -99 -37 -38 -69 -77 -72 -85 -3
-10 -19 -16 -44 -17 -21 -1 -50 -5 -63 -9 -20 -6 -23 -4 -18 9 4 10 10 24 13
32 10 24 -12 18 -48 -14 -73 -63 -110 -66 -190 -16 -73 46 -82 85 -47 201 10
32 57 83 99 105 27 14 190 29 203 18 5 -4 -4 -38 -19 -75z m3752 64 c52 -13
112 -61 130 -104 8 -19 14 -63 14 -99 l0 -65 -41 -27 c-98 -65 -133 -67 -198
-7 -48 43 -62 44 -54 2 6 -28 4 -31 -13 -23 -10 5 -32 8 -47 7 -22 -1 -44 15
-112 85 -104 107 -117 141 -66 184 35 28 70 39 131 39 37 0 38 -1 65 -67 44
-111 107 -176 185 -188 l35 -6 -25 18 c-85 61 -153 156 -175 245 l-7 27 68 -5
c38 -3 88 -10 110 -16z m-1045 -78 c10 -6 19 -19 19 -29 0 -11 7 -21 15 -25 8
-3 15 -1 15 3 0 5 -6 12 -12 14 -8 3 -6 6 5 6 9 1 17 -4 17 -10 0 -7 8 -18 18
-25 16 -13 16 -14 -3 -8 -16 5 -17 4 -5 -4 8 -6 17 -9 21 -6 4 2 21 -1 38 -7
27 -10 30 -13 19 -27 -11 -13 -9 -14 17 -8 22 5 26 4 15 -4 -22 -14 -34 -12
-60 10 -13 11 -30 20 -38 20 -12 0 -12 -3 4 -15 10 -8 15 -14 9 -14 -5 -1 -21
8 -35 19 -21 17 -22 19 -5 14 20 -6 20 -6 -42 46 -18 15 -26 12 -19 -6 3 -9 2
-12 -5 -8 -6 3 -8 17 -4 31 4 16 2 22 -5 18 -5 -3 -10 1 -10 9 0 19 5 20 31 6z
m-2381 -104 c0 -31 -7 -45 -39 -77 -25 -25 -48 -39 -65 -39 l-26 0 45 66 c36
52 45 74 45 107 l0 42 20 -30 c11 -17 20 -47 20 -69z m581 69 c7 18 8 18 8 2
1 -24 -18 -59 -28 -52 -5 2 -8 -3 -7 -13 0 -10 -6 -16 -16 -16 -10 1 -15 -2
-12 -7 6 -11 -83 -69 -105 -69 -11 1 -8 5 8 14 15 8 20 16 12 20 -6 4 -11 3
-11 -2 0 -5 -11 -12 -25 -14 -15 -3 -22 -1 -18 5 4 6 -4 8 -20 5 -15 -3 -24
-1 -21 3 3 5 -3 9 -13 10 -11 0 -6 5 12 11 17 6 33 15 36 21 4 5 12 6 19 2 9
-6 11 -4 5 5 -6 10 -4 12 9 7 10 -4 15 -3 11 3 -7 11 32 33 45 25 6 -4 9 -1 8
5 -2 7 17 23 42 37 l45 24 4 -23 c3 -22 4 -22 12 -3z m2453 -125 c38 -55 36
-67 -9 -56 -56 14 -95 124 -63 176 11 17 13 15 23 -23 6 -23 28 -67 49 -97z
m-614 45 l25 -30 -27 24 c-16 14 -28 29 -28 34 0 6 1 8 3 6 1 -2 13 -17 27
-34z m64 -54 c-2 -3 -12 3 -22 13 -16 17 -16 18 5 5 12 -7 20 -15 17 -18z
m-2347 -108 c64 -30 121 -140 81 -156 -7 -2 -53 -5 -103 -6 -88 -2 -89 -2 -72
17 10 11 26 18 36 15 11 -3 22 1 26 7 5 9 1 10 -14 5 -22 -7 -30 10 -8 18 6 2
9 7 5 11 -3 4 -20 0 -37 -8 -36 -19 -45 -9 -30 33 16 47 3 49 -23 5 -17 -28
-24 -34 -26 -21 -5 26 36 76 71 86 46 13 55 13 94 -6z m2792 -4 c25 -15 31
-23 22 -32 -6 -6 -11 -19 -11 -28 0 -26 -22 -29 -47 -6 -33 30 -31 -2 2 -37
30 -32 31 -43 8 -50 -22 -6 -105 -2 -118 6 -6 3 -22 8 -37 12 -31 7 -35 24
-14 64 42 81 127 112 195 71z m-3614 -99 c10 -11 23 -17 29 -13 6 3 8 3 4 -2
-4 -4 2 -19 12 -33 20 -24 26 -75 14 -107 -5 -11 -14 -1 -32 37 l-26 53 -4
-32 c-2 -18 2 -41 7 -52 15 -28 14 -51 -4 -51 -21 0 -65 22 -65 32 0 5 -10 22
-21 38 -21 27 -21 32 -9 108 l13 79 32 -18 c18 -11 40 -28 50 -39z m3674 26
c-3 -3 -11 5 -18 17 -13 21 -12 21 5 5 10 -10 16 -20 13 -22z m735 -41 c10
-35 16 -75 12 -88 -7 -30 -72 -97 -93 -97 -9 0 -13 3 -10 7 4 3 3 11 -2 17 -6
7 -3 28 6 54 22 65 11 70 -29 13 -27 -39 -37 -48 -42 -36 -11 29 -6 69 12 97
15 24 107 98 122 98 3 0 14 -29 24 -65z m-434 -34 c21 -17 33 -37 36 -59 2
-18 8 -41 14 -52 11 -21 -5 -110 -21 -110 -15 0 -19 18 -4 24 27 10 19 87 -14
132 -87 117 -97 113 -29 -12 59 -109 48 -127 -48 -79 -110 55 -119 104 -31
172 32 25 53 21 97 -16z m-3886 -22 c9 -22 15 -52 15 -67 -2 -26 -2 -26 -6 -2
-5 35 -34 100 -45 100 -4 0 -8 4 -8 10 0 23 30 -5 44 -41z m371 19 c19 -18 37
-45 41 -60 5 -24 -1 -31 -56 -73 -43 -31 -69 -44 -82 -39 -14 4 -21 -2 -29
-25 -6 -18 -18 -31 -27 -31 -15 1 -15 2 -2 13 8 7 16 23 18 37 1 14 19 57 38
97 45 89 41 110 -8 37 -38 -57 -61 -59 -33 -2 20 39 63 78 88 78 9 0 33 -15
52 -32z m203 -11 l12 -27 -25 16 c-25 16 -32 34 -18 47 8 9 16 0 31 -36z
m1362 -60 l0 -93 -35 4 c-45 5 -98 -43 -93 -85 4 -37 31 -41 46 -8 9 19 18 25
34 23 27 -4 42 -54 35 -117 -8 -76 -44 -80 -116 -13 -48 45 -51 51 -51 98 0
60 18 95 91 177 31 34 61 72 68 85 6 12 14 22 16 22 3 0 5 -42 5 -93z m1671
76 c-20 -35 -41 -56 -47 -50 -6 6 -1 15 31 54 15 19 27 15 16 -4z m-1304 -95
c70 -73 93 -118 93 -175 -1 -51 -17 -77 -75 -118 -46 -33 -50 -34 -67 -18 -25
22 -41 87 -33 135 6 35 10 39 33 36 18 -2 28 -10 30 -23 6 -30 19 -40 37 -25
18 15 19 59 2 81 -17 23 -52 39 -81 39 -26 0 -26 0 -26 88 1 69 3 83 12 67 6
-11 40 -50 75 -87z m1216 45 c-7 -2 -19 -2 -25 0 -7 3 -2 5 12 5 14 0 19 -2
13 -5z m646 -100 c16 -35 -1 -53 -22 -23 -15 21 -13 50 2 50 4 0 13 -12 20
-27z m-4164 -12 c-3 -12 -15 -21 -26 -21 -25 0 -24 8 4 30 26 21 31 19 22 -9z
m3956 -170 l12 -70 29 40 c41 56 42 48 2 -18 -19 -31 -34 -64 -35 -72 -1 -9
-7 16 -14 54 -7 39 -16 85 -20 103 -5 20 -4 32 3 32 6 0 16 -31 23 -69z
m-3750 22 c-8 -15 -10 -15 -11 -2 0 17 10 32 18 25 2 -3 -1 -13 -7 -23z m3859
23 c0 -2 -8 -10 -17 -17 -16 -13 -17 -12 -4 4 13 16 21 21 21 13z m-2608 -41
c1 -5 -56 -40 -126 -77 -71 -37 -139 -77 -152 -89 -17 -16 -24 -18 -24 -8 0
34 78 122 133 151 64 32 165 46 169 23z m1369 -11 c57 -18 111 -69 144 -135
l26 -49 -60 43 c-32 24 -90 57 -127 72 -74 31 -134 69 -134 87 0 13 86 3 151
-18z m-2631 -71 c0 -55 -3 -74 -11 -66 -17 17 -11 143 7 143 2 0 4 -35 4 -77z
m3492 26 c103 -40 147 -79 202 -180 30 -54 36 -76 36 -124 l0 -58 -29 39 c-37
51 -123 131 -186 174 -27 18 -72 51 -98 73 -26 22 -50 37 -53 34 -12 -12 21
-49 108 -123 117 -98 134 -115 142 -137 4 -13 -6 -9 -35 15 -103 84 -355 245
-367 234 -9 -10 26 -42 106 -96 42 -29 101 -71 130 -93 45 -34 51 -42 40 -56
-11 -14 -11 -14 4 -3 14 11 20 10 40 -7 13 -11 32 -27 43 -35 19 -15 18 -15
-15 -10 -188 29 -281 70 -340 147 -39 53 -71 117 -88 180 l-10 35 122 9 c138
11 182 8 248 -18z m-2969 14 l107 -6 -6 -26 c-13 -54 -76 -170 -114 -209 -46
-46 -102 -74 -186 -95 -52 -13 -186 -32 -142 -20 9 2 20 13 23 24 4 11 11 17
16 14 5 -4 9 -2 9 4 0 5 24 26 53 46 198 135 273 192 263 202 -11 12 -315
-171 -369 -222 -18 -17 -41 -37 -52 -45 -45 -34 34 57 96 109 153 128 169 143
169 157 0 21 -195 -115 -262 -183 -31 -32 -68 -76 -82 -97 l-26 -39 0 64 c0
122 96 251 226 304 64 27 103 29 277 18z m-787 -90 c28 -25 33 -10 7 20 -17
19 -17 20 4 9 48 -26 84 -95 65 -127 -8 -15 -12 -14 -30 12 -15 21 -30 30 -52
31 -34 1 -36 -4 -14 -36 11 -16 12 -22 3 -22 -7 0 -2 -11 11 -25 l23 -25 -28
0 c-31 0 -88 39 -106 72 -9 16 -8 38 1 89 l13 68 39 -22 c22 -12 50 -32 64
-44z m4389 -90 c-20 -36 -46 -56 -87 -66 -38 -10 -42 5 -13 57 14 25 21 47 16
50 -11 7 -41 -3 -41 -13 0 -12 -59 -71 -71 -71 -8 0 -10 12 -5 41 9 58 32 97
69 119 49 30 57 24 9 -7 -23 -15 -40 -29 -38 -31 6 -5 86 37 116 60 l25 20 18
-63 c18 -61 18 -65 2 -96z m-2941 -39 c15 -6 62 -73 55 -77 -2 -1 -26 -10 -54
-19 -45 -16 -51 -16 -67 -1 -25 22 -22 49 7 78 25 26 33 29 59 19z m1441 -19
c14 -13 25 -35 25 -48 0 -31 -25 -54 -42 -39 -7 5 -32 13 -55 17 -41 6 -42 7
-32 33 25 64 64 78 104 37z m-2549 -153 c-17 -16 -18 -16 -5 5 7 12 15 20 18
17 3 -2 -3 -12 -13 -22z m-410 4 c11 -8 37 -19 59 -25 22 -6 55 -20 73 -31 28
-17 32 -25 32 -64 0 -26 -6 -48 -15 -56 -12 -10 -15 -9 -15 8 0 24 -52 82 -74
82 -12 0 -16 -10 -16 -34 0 -27 7 -40 32 -60 27 -21 30 -26 16 -31 -22 -9 -81
11 -100 33 -26 30 -38 82 -32 138 7 59 10 61 40 40z m4453 -33 c14 -50 14 -69
-3 -101 -24 -46 -61 -73 -107 -79 l-44 -6 38 35 c40 38 48 72 20 83 -17 6 -22
2 -63 -56 -15 -20 -17 -20 -32 -5 -13 13 -15 23 -7 49 11 40 39 63 92 78 23 6
50 17 61 25 30 20 34 18 45 -23z m-3694 -109 c-12 -64 -62 -105 -144 -118
l-44 -7 57 61 c38 42 56 69 56 87 0 25 -2 24 -52 -22 -29 -27 -70 -66 -91 -88
-20 -22 -39 -38 -41 -36 -10 10 17 107 39 140 24 37 43 47 165 86 l55 18 3
-45 c2 -25 1 -59 -3 -76z m3076 61 c16 -9 35 -26 44 -38 15 -23 40 -125 33
-133 -3 -2 -40 30 -83 71 -44 41 -83 75 -87 75 -4 0 -8 -9 -8 -21 0 -12 23
-42 58 -75 l57 -54 -45 0 c-91 0 -137 54 -147 170 l-6 69 77 -25 c43 -13 91
-31 107 -39z m-3758 -62 c-3 -9 -9 -11 -15 -5 -5 5 -6 17 -2 26 5 13 9 14 14
5 5 -7 6 -19 3 -26z m137 -94 c0 -20 -21 -17 -35 5 -23 34 -8 57 17 27 10 -13
18 -27 18 -32z m4050 34 c0 -17 -38 -64 -44 -55 -10 16 12 62 29 62 8 0 15 -3
15 -7z m97 -120 c16 -6 15 -8 -6 -13 -34 -8 -37 -28 -5 -32 l27 -3 -26 -31
c-17 -19 -40 -34 -61 -38 -40 -8 -86 1 -86 17 0 5 22 32 49 58 47 48 70 57
108 42z m-4195 -40 c61 -49 59 -67 -10 -71 -46 -3 -55 0 -79 25 l-28 28 28 3
c33 4 31 25 -3 30 -18 3 -20 6 -9 13 27 17 54 9 101 -28z m512 0 c-7 -16 -14
-50 -14 -76 0 -53 -24 -109 -63 -145 -29 -27 -96 -40 -123 -23 -16 10 -14 11
13 6 33 -7 79 11 102 39 16 19 6 20 -38 5 -17 -6 -38 -8 -47 -5 -14 5 -10 13
18 49 79 96 74 127 -7 47 -30 -30 -57 -51 -61 -48 -12 13 -6 79 10 103 32 48
54 56 213 74 8 1 8 -7 -3 -26z m1122 -7 c48 -48 47 -95 -1 -143 -32 -32 -40
-35 -77 -30 -80 11 -122 93 -77 151 23 29 70 55 103 56 10 0 33 -15 52 -34z
m949 8 c64 -42 55 -145 -14 -174 -96 -39 -186 62 -134 150 9 16 26 33 37 39
25 12 81 5 111 -15z m1142 0 c23 -8 48 -26 57 -39 16 -25 22 -100 9 -108 -5
-3 -30 17 -58 44 -61 60 -74 42 -21 -30 55 -75 51 -80 -50 -55 -27 7 -28 6
-14 -11 8 -10 33 -26 55 -36 31 -15 35 -19 17 -19 -34 0 -78 26 -103 61 -17
25 -24 50 -27 111 -3 43 -9 81 -13 84 -46 28 67 27 148 -2z m-2662 -191 c10
-21 20 -64 22 -96 2 -32 4 -62 4 -65 1 -4 1 -16 0 -27 -1 -16 -5 -13 -15 11
-8 18 -44 64 -80 104 -36 39 -66 78 -66 86 0 21 25 17 57 -9 63 -51 64 -49 15
13 -29 35 -50 71 -47 78 3 8 5 19 5 25 1 19 85 -78 105 -120z m2085 104 c0 -7
-11 -33 -23 -58 -41 -79 -41 -87 -3 -50 35 34 36 34 36 11 0 -25 -64 -100 -86
-100 -7 0 -25 -25 -39 -55 -15 -30 -30 -55 -33 -55 -2 0 -2 36 1 80 4 60 12
94 32 133 42 79 115 140 115 94z m653 -124 c-10 -20 -24 -39 -32 -41 -10 -3
-8 4 6 24 11 16 24 40 28 54 5 14 10 19 12 13 3 -7 -4 -30 -14 -50z m-3503 3
c0 -5 -7 -1 -15 10 -8 10 -14 24 -14 29 0 6 6 1 14 -9 8 -11 15 -24 15 -30z
m-190 3 c24 -11 51 -27 60 -37 15 -16 12 -17 -49 -19 -36 -1 -79 -3 -95 -5
-24 -2 -34 3 -52 30 -34 50 -23 66 40 57 28 -3 71 -15 96 -26z m4015 17 c19
-13 18 -15 -8 -55 l-27 -41 -40 16 c-39 16 -86 15 -125 -1 -15 -7 -12 -1 10
23 27 29 116 69 156 71 8 1 24 -5 34 -13z m-2655 -65 c0 -50 -123 -190 -155
-177 -13 5 -16 2 -11 -10 4 -12 2 -15 -9 -10 -8 3 -15 0 -16 -7 0 -7 -2 -8 -5
-1 -6 15 21 75 46 102 12 12 39 34 61 48 24 15 47 40 55 60 17 39 34 37 34 -5z
m1180 25 c0 -8 34 -45 75 -83 68 -63 112 -128 103 -154 -7 -22 -194 160 -204
198 -7 27 1 53 16 53 5 0 10 -6 10 -14z m1233 -103 c-9 -54 -28 -106 -40 -110
-12 -4 -7 26 17 105 16 52 31 55 23 5z m-3634 -65 c1 -27 -3 -48 -8 -48 -10 0
-23 109 -14 124 10 15 22 -24 22 -76z m-142 66 c-3 -3 -12 -4 -19 -1 -8 3 -5
6 6 6 11 1 17 -2 13 -5z m3923 2 c0 -2 -9 -6 -20 -9 -11 -3 -20 -1 -20 4 0 5
9 9 20 9 11 0 20 -2 20 -4z m64 -66 c29 -29 29 -30 11 -50 -25 -28 -39 -25
-71 13 -15 17 -30 31 -34 30 -4 -1 -5 9 -2 23 4 23 8 25 36 20 17 -4 44 -20
60 -36z m-4001 19 c12 -7 24 -13 26 -15 2 -2 -10 -17 -27 -33 -37 -37 -75 -46
-96 -22 -20 22 -14 42 22 64 32 20 46 21 75 6z m3927 -78 c7 -24 6 -31 -3 -28
-7 2 -11 14 -9 25 2 12 -2 22 -8 22 -6 0 -8 5 -5 11 9 14 14 8 25 -30z m-3965
-123 c72 -15 119 -42 143 -80 12 -18 20 -34 18 -35 -2 -2 -207 67 -238 81 -11
5 -18 4 -18 -3 0 -20 91 -70 174 -96 109 -34 114 -37 93 -69 -10 -14 -29 -29
-43 -32 -39 -10 -148 24 -212 66 -72 47 -90 63 -137 125 l-38 50 39 7 c47 7
151 1 219 -14z m255 -7 c48 -18 150 -87 150 -102 0 -3 -10 -21 -23 -40 -42
-62 -127 -103 -127 -61 0 11 14 25 34 35 40 19 55 52 33 75 -14 13 -19 13 -53
-7 -41 -25 -39 -26 -76 44 -11 22 -27 48 -36 58 -14 16 -13 17 16 17 18 0 54
-9 82 -19z m3535 -52 c-29 -57 -40 -69 -53 -64 -69 29 -72 30 -87 14 -9 -9
-13 -23 -9 -33 7 -19 54 -46 79 -46 19 0 15 -19 -7 -33 -33 -22 -101 21 -134
85 -13 25 -12 29 8 48 52 49 158 99 211 100 l27 0 -35 -71z m428 39 c-56 -97
-207 -199 -320 -214 -47 -6 -54 -4 -78 20 -15 15 -25 32 -23 38 2 6 40 23 84
38 85 29 139 54 167 78 28 25 19 32 -20 15 -21 -8 -60 -22 -88 -30 -27 -9 -67
-24 -88 -35 -22 -11 -41 -18 -43 -15 -9 9 52 87 75 96 77 30 134 40 239 40
l113 1 -18 -32z m-682 -131 l-24 -22 19 27 c10 14 21 24 23 22 3 -3 -6 -15
-18 -27z m-2194 -146 c27 -10 127 -50 225 -90 191 -77 263 -97 378 -107 136
-12 288 28 580 151 75 31 157 59 185 62 61 6 145 -9 205 -36 25 -12 34 -19 20
-16 -14 3 -79 8 -145 11 -135 7 -126 10 -294 -94 -337 -208 -680 -200 -1053
25 -48 29 -112 60 -143 68 -52 15 -60 15 -156 -4 -125 -26 -135 -26 -84 0 106
53 199 63 282 30z m-780 -67 c35 -19 63 -39 63 -44 0 -16 -10 -12 -105 41 -70
39 -82 49 -56 45 19 -4 63 -22 98 -42z m2890 -9 c-87 -46 -107 -52 -107 -36 0
18 124 81 158 81 31 0 26 -4 -51 -45z m-2939 -20 c28 -20 52 -37 52 -39 0 -3
-52 -2 -117 1 -86 5 -114 3 -109 -5 4 -7 22 -12 39 -12 18 0 65 -8 105 -18 68
-17 72 -19 55 -34 -57 -49 -125 -52 -195 -7 -26 17 -48 37 -48 44 0 7 22 36
49 65 46 49 52 52 83 46 18 -4 57 -22 86 -41z m797 26 l40 -19 -215 0 c-217 0
-230 7 -55 26 133 15 186 13 230 -7z m1554 8 c204 -19 199 -27 -16 -27 -193 0
-233 6 -180 28 30 12 60 12 196 -1z m763 -41 c26 -29 48 -58 48 -65 0 -8 -21
-27 -47 -43 -61 -39 -114 -40 -171 -3 -23 15 -42 30 -42 33 0 3 16 4 35 2 19
-2 42 1 50 8 8 6 41 14 74 17 37 4 58 10 54 16 -4 6 -44 8 -111 3 -91 -5 -103
-4 -92 9 13 16 126 75 143 75 6 0 32 -23 59 -52z m434 -294 c8 -56 -2 -135
-19 -146 -17 -11 -129 -10 -147 2 -11 7 -16 33 -18 100 l-4 90 90 0 91 0 7
-46z m-4511 -243 c38 -15 72 -47 92 -86 17 -32 30 -224 19 -269 -6 -26 -7 -26
-106 -26 l-100 0 0 125 0 126 -97 -3 -98 -3 -3 -613 c-1 -390 1 -611 7 -607 6
3 50 14 98 24 l88 18 3 175 2 176 95 7 c52 4 99 4 105 0 14 -9 5 -340 -10
-381 -6 -16 -25 -44 -43 -62 -35 -36 -75 -50 -290 -103 -130 -32 -139 -33
-180 -19 -81 29 -78 -3 -77 741 0 612 1 654 19 694 22 49 70 83 139 95 65 12
300 5 337 -9z m723 -10 c22 -11 51 -35 64 -53 l23 -33 3 -520 c3 -593 5 -571
-78 -612 -35 -18 -74 -24 -178 -32 -187 -12 -243 3 -278 77 -16 34 -17 79 -16
549 1 334 6 522 13 540 32 85 114 115 300 108 83 -3 116 -8 147 -24z m440 17
c5 -7 19 -44 31 -83 12 -38 52 -164 91 -280 l69 -210 0 293 1 292 80 0 80 0 0
-625 0 -625 -74 0 -74 0 -11 51 c-19 87 -177 623 -190 644 -3 6 -8 -146 -11
-337 -3 -190 -7 -349 -10 -351 -3 -3 -39 -6 -80 -8 l-75 -4 -2 628 -3 627 84
0 c55 0 87 -4 94 -12z m1741 -18 c56 -32 81 -78 81 -147 0 -61 7 -57 -117 -58
l-81 0 -7 43 -6 42 -435 0 -434 0 0 -155 0 -156 332 1 c330 1 333 1 350 -20
23 -29 23 -72 -1 -101 l-19 -24 -331 -3 -331 -3 0 -320 0 -319 -90 0 -90 0 0
625 0 626 568 -3 567 -3 44 -25z m751 8 c52 -22 97 -79 105 -130 3 -24 5 -88
3 -143 l-3 -100 -100 0 -100 0 -3 123 -3 123 -102 -3 -102 -3 -3 -455 c-1
-250 0 -465 3 -478 5 -22 9 -23 106 -20 l101 3 -1 148 -2 147 106 0 107 0 -4
-174 c-3 -158 -5 -177 -24 -203 -41 -56 -71 -63 -268 -63 -209 0 -246 10 -284
79 -22 38 -22 43 -22 543 l0 505 23 33 c51 76 101 90 297 86 92 -2 146 -8 170
-18z m491 -5 c4 -163 2 -1227 -2 -1235 -5 -7 -37 -8 -93 -3 l-86 7 0 629 0
629 90 0 90 0 1 -27z m367 -630 l-3 -658 -65 1 c-36 0 -77 4 -92 7 l-28 7 0
650 0 650 95 0 95 0 -2 -657z m681 638 c56 -17 99 -66 111 -127 6 -29 10 -70
8 -91 l-3 -38 -112 -3 -113 -3 0 66 0 65 -100 0 -100 0 0 -120 c0 -98 3 -120
14 -120 45 0 258 -33 297 -46 54 -17 96 -57 109 -105 14 -46 13 -873 0 -921
-14 -51 -61 -88 -110 -88 -48 0 -330 70 -392 98 -77 34 -118 109 -118 220 0
60 -8 57 120 40 86 -11 88 -12 94 -41 3 -16 6 -44 6 -62 0 -32 0 -33 85 -54
46 -11 89 -21 95 -21 12 0 14 758 2 777 -5 7 -66 24 -138 38 -146 29 -179 40
-213 69 -42 37 -51 76 -51 214 0 113 3 133 23 172 24 49 63 76 129 90 54 12
312 5 357 -9z m-2211 -473 l-3 -83 -60 -3 c-90 -5 -131 10 -145 54 -13 40 0
87 29 104 9 5 53 10 99 10 l83 0 -3 -82z m1845 -158 l77 0 0 -80 0 -80 -77 0
c-43 0 -95 3 -115 6 l-38 7 0 80 0 80 38 -7 c20 -3 72 -6 115 -6z m-1876 -136
l28 -21 3 -167 c3 -184 -5 -218 -56 -253 -25 -16 -59 -18 -382 -21 -273 -2
-361 1 -380 10 -37 20 -54 58 -46 101 l7 37 325 0 325 0 -3 93 -3 92 -163 1
c-108 0 -166 4 -174 12 -28 28 -5 110 36 131 13 6 101 9 238 8 203 -2 218 -3
245 -23z m-2358 -815 c42 -15 34 -35 -13 -31 -49 4 -49 -22 2 -45 30 -15 38
-24 40 -50 3 -27 -1 -35 -22 -44 -37 -17 -96 -3 -96 22 0 17 4 19 23 13 69
-23 88 6 23 35 -40 17 -46 24 -46 50 0 20 8 35 22 45 27 19 26 19 67 5z m415
-17 c46 -42 39 -120 -14 -147 -92 -48 -175 38 -123 126 29 49 94 59 137 21z
m288 -44 l3 -73 30 0 30 0 3 68 c3 59 5 67 22 67 18 0 20 -7 20 -72 0 -86 -14
-108 -70 -108 -52 0 -73 26 -78 100 -5 67 1 90 22 90 12 0 16 -16 18 -72z
m438 52 c0 -13 -7 -20 -20 -20 -18 0 -20 -7 -20 -70 0 -63 -2 -70 -20 -70 -18
0 -20 7 -20 70 0 68 -1 70 -25 70 -15 0 -25 6 -25 14 0 17 20 23 83 25 41 1
47 -2 47 -19z m365 8 c2 -7 6 -50 10 -96 6 -83 6 -84 -16 -80 -19 2 -23 9 -24
37 0 33 -2 35 -35 35 -33 1 -35 -1 -38 -36 -3 -40 -26 -53 -35 -19 -6 24 -6
132 0 148 10 25 32 13 35 -19 3 -29 7 -33 36 -36 28 -3 32 0 32 22 0 46 24 76
35 44z m520 -73 c39 -104 39 -105 16 -105 -12 0 -21 7 -21 15 0 24 -74 23
-101 -1 -46 -41 -40 1 16 120 25 53 28 56 47 44 11 -8 30 -41 43 -73z m370 73
c36 -16 25 -34 -18 -30 -49 5 -47 -11 4 -43 35 -23 40 -30 37 -58 -3 -28 -8
-33 -40 -41 -28 -7 -45 -6 -63 4 -38 20 -25 35 28 32 61 -5 61 13 2 39 -38 17
-45 24 -45 49 0 18 8 34 22 44 27 19 39 20 73 4z m1093 -88 c-2 -52 -7 -85
-15 -87 -6 -2 -32 21 -57 52 l-46 57 0 -56 c0 -42 -4 -56 -14 -56 -10 0 -16
20 -21 75 -12 122 11 138 73 53 l37 -53 3 50 c3 48 18 73 35 56 4 -4 7 -45 5
-91z m275 85 c8 -8 17 -11 21 -8 3 4 6 -1 6 -9 0 -13 -8 -15 -40 -11 -42 6
-57 -10 -21 -22 34 -10 71 -46 71 -67 0 -48 -61 -74 -111 -48 -28 16 -25 43 4
34 66 -22 91 7 28 32 -23 9 -41 19 -41 23 0 3 -3 16 -6 28 -4 14 1 28 15 42
24 24 54 27 74 6z m-1025 -82 c-2 -70 -6 -88 -18 -88 -12 0 -16 18 -18 88 -3
82 -2 87 18 87 20 0 21 -5 18 -87z m352 23 c38 -84 46 -116 28 -116 -7 0 -21
9 -31 20 -23 27 -74 26 -104 -2 -13 -12 -25 -19 -28 -16 -6 5 34 118 55 157
21 41 49 26 80 -43z m-3450 -46 c0 -6 -109 -10 -306 -10 -201 0 -303 3 -299
10 4 6 117 10 306 10 193 0 299 -4 299 -10z m5000 0 c0 -6 -103 -10 -289 -10
-183 0 -292 4 -296 10 -4 7 95 10 289 10 191 0 296 -4 296 -10z"/>
<path d="M5450 8056 c0 -15 32 -46 47 -46 6 0 16 6 22 14 14 16 6 23 -39 36
-22 6 -30 5 -30 -4z"/>
<path d="M4225 7690 c3 -5 10 -10 16 -10 5 0 9 5 9 10 0 6 -7 10 -16 10 -8 0
-12 -4 -9 -10z"/>
<path d="M5168 7399 c6 -7 12 -38 12 -69 0 -32 6 -64 14 -75 13 -18 14 -17 30
13 9 17 16 45 16 62 0 17 5 40 10 51 13 23 -2 26 -20 4 -11 -13 -15 -13 -29
-2 -9 8 -23 18 -31 22 -12 6 -13 5 -2 -6z"/>
<path d="M5340 7158 c0 -15 25 -48 35 -48 12 0 55 25 55 32 0 4 -15 8 -33 8
-18 0 -38 5 -45 12 -9 9 -12 8 -12 -4z"/>
<path d="M5062 6989 c2 -6 8 -10 13 -10 5 0 11 4 13 10 2 6 -4 11 -13 11 -9 0
-15 -5 -13 -11z"/>
<path d="M6742 6940 c0 -14 2 -19 5 -12 2 6 2 18 0 25 -3 6 -5 1 -5 -13z"/>
<path d="M5621 6174 c0 -11 3 -14 6 -6 3 7 2 16 -1 19 -3 4 -6 -2 -5 -13z"/>
<path d="M5644 5633 c18 -75 18 -112 2 -134 -21 -30 -21 -69 0 -69 70 0 90
102 38 201 -20 39 -49 40 -40 2z"/>
<path d="M6442 4729 c-19 -7 -23 -15 -20 -40 4 -38 26 -54 61 -45 29 7 35 32
17 65 -13 25 -30 30 -58 20z"/>
<path d="M6460 4479 c-15 -28 12 -59 52 -59 24 0 28 4 28 28 0 15 -5 33 -12
40 -19 19 -56 14 -68 -9z"/>
<path d="M4737 5623 c-55 -108 -42 -192 32 -193 25 0 25 -1 -3 77 -13 35 -14
52 -5 93 16 73 6 82 -24 23z"/>
<path d="M4866 5363 c-3 -4 -6 -14 -6 -23 0 -23 -74 -106 -120 -135 -20 -13
-56 -29 -79 -36 -42 -12 -91 -58 -91 -84 0 -59 58 -105 133 -105 37 0 53 5 70
23 12 13 33 30 47 37 14 7 54 37 90 66 105 85 137 167 85 219 -31 32 -50 33
-40 3 25 -82 14 -114 -55 -161 -25 -16 -56 -40 -70 -52 -14 -12 -37 -25 -52
-29 -17 -4 -34 -18 -43 -36 -9 -18 -24 -30 -35 -30 -28 0 -75 43 -67 63 3 9
44 34 91 57 120 57 196 139 182 195 -6 23 -29 39 -40 28z"/>
<path d="M4267 4877 c-38 -65 -45 -91 -27 -102 6 -3 10 0 10 7 0 7 14 42 30
77 41 86 34 97 -13 18z"/>
<path d="M3925 4724 c-23 -23 -30 -64 -14 -75 21 -13 55 -11 68 5 33 40 -18
106 -54 70z"/>
<path d="M3886 4478 c-20 -28 -20 -42 -1 -58 12 -10 21 -10 44 0 37 15 46 38
25 61 -23 25 -49 24 -68 -3z"/>
<path d="M4924 4297 c-16 -35 -24 -69 -22 -89 l4 -33 7 40 c5 22 18 59 30 82
11 23 18 45 14 49 -4 4 -18 -18 -33 -49z"/>
<path d="M5450 4260 c0 -5 5 -10 10 -10 6 0 10 5 10 10 0 6 -4 10 -10 10 -5 0
-10 -4 -10 -10z"/>
<path d="M5170 4085 c-21 -22 -22 -26 -8 -47 9 -13 18 -44 21 -68 3 -25 6 -46
6 -48 1 -2 11 -2 24 0 19 3 22 10 25 53 2 30 9 53 18 58 23 13 16 36 -18 57
-41 25 -40 25 -68 -5z"/>
<path d="M5029 4024 c-26 -25 -27 -26 -59 -9 -27 14 -34 14 -41 4 -10 -18 8
-45 44 -67 27 -17 27 -17 73 30 43 42 51 68 21 68 -7 0 -24 -12 -38 -26z"/>
<path d="M5340 4022 c0 -21 59 -82 79 -82 26 0 71 41 71 65 0 30 -14 39 -30
20 -16 -19 -49 -19 -74 0 -27 20 -46 19 -46 -3z"/>
<path d="M4105 6271 c-17 -7 -16 -9 9 -15 16 -4 31 -5 34 -1 3 3 -2 5 -12 5
-9 0 -14 5 -11 10 7 11 7 11 -20 1z"/>
<path d="M4709 4841 c-20 -16 -22 -23 -13 -38 7 -11 23 -18 40 -18 25 0 30 4
32 29 3 25 -10 45 -29 46 -4 0 -17 -9 -30 -19z"/>
<path d="M5643 4834 c-14 -38 41 -71 66 -40 7 8 10 24 6 36 -8 25 -62 28 -72
4z"/>
<path d="M4221 4603 c7 -12 15 -20 18 -17 3 2 -3 12 -13 22 -17 16 -18 16 -5
-5z"/>
<path d="M3200 2721 l0 -499 58 2 c31 2 78 4 105 4 l47 2 0 495 0 495 -105 0
-105 0 0 -499z"/>
<path d="M3681 1721 c-40 -40 -19 -91 37 -91 37 0 65 54 44 87 -15 24 -59 26
-81 4z"/>
<path d="M5317 1689 c-3 -12 0 -22 9 -26 20 -8 27 2 19 26 -8 27 -21 27 -28 0z"/>
<path d="M6386 1715 c-12 -33 -7 -55 15 -55 16 0 19 4 13 23 -12 42 -20 51
-28 32z"/>
</g>
</svg>
